{"title":"Grimms Snow White 2012 DvDrip XviD Ac3 Feel-Free","uid":7093391,"size":1303661720,"categoryP":"video","categoryS":"movies","magnet":"?xt=urn:btih:0151fae707e67fe71cbc3983f16fa33d5b8aa817&amp;dn=Grimms+Snow+White+2012+DvDrip+XviD+Ac3+Feel-Free&amp;tr=udp%3A%2F%2Ftracker.openbittorrent.com%3A80&amp;tr=udp%3A%2F%2Fopen.demonii.com%3A1337&amp;tr=udp%3A%2F%2Ftracker.coppersurfer.tk%3A6969&amp;tr=udp%3A%2F%2Fexodus.desync.com%3A6969","seeders":1,"leechers":1,"uploader":"whenwe","files":9,"time":1331457749,"description":"Genre:Fantasy\nLanguage:English\nIMDb:http://www.imdb.com/title/tt2081255/\nSource:UnKnOwN Thanks!\nEncoder:Tony\n\nFormat : AVI\nFormat/Info : Audio Video Interleave\nFile size : 1.21 GiB\nDuration : 1h 28mn\nOverall bit rate : 1 953 Kbps\n\nVideo\nID : 0\nFormat : MPEG-4 Visual\nFormat profile : Advanced Simple@L5\nFormat settings, BVOP : 1\nFormat settings, QPel : No\nFormat settings, GMC : No warppoints\nFormat settings, Matrix : Default (H.263)\nCodec ID : XVID\nCodec ID/Hint : XviD\nDuration : 1h 28mn\nBit rate : 1 494 Kbps\nWidth : 640 pixels\nHeight : 360 pixels\nDisplay aspect ratio : 16:9\nFrame rate : 29.970 fps\nColor space : YUV\nChroma subsampling : 4:2:0\nBit depth : 8 bits\nScan type : Progressive\nCompression mode : Lossy\nBits/(Pixel*Frame) : 0.216\nStream size : 949 MiB (76%)\nWriting library : XviD 1.2.1 (UTC 2008-12-04)\n\nAudio\nID : 1\nFormat : AC-3\nFormat/Info : Audio Coding 3\nMode extension : CM (complete main)\nCodec ID : 2000\nDuration : 1h 28mn\nBit rate mode : Constant\nBit rate : 448 Kbps\nChannel(s) : 6 channels\nChannel positions : Front: L C R, Side: L R, LFE\nSampling rate : 48.0 KHz\nBit depth : 16 bits\nCompression mode : Lossy\nStream size : 285 MiB (23%)\nAlignment : Aligned on interleaves\nInterleave, duration : 33 ms (1.00 video frame)\nInterleave, preload duration : 512 ms\n","torrent":{"xt":"urn:btih:0151fae707e67fe71cbc3983f16fa33d5b8aa817","amp;dn":"Grimms+Snow+White+2012+DvDrip+XviD+Ac3+Feel-Free","amp;tr":["udp%3A%2F%2Ftracker.openbittorrent.com%3A80","udp%3A%2F%2Fopen.demonii.com%3A1337","udp%3A%2F%2Ftracker.coppersurfer.tk%3A6969","udp%3A%2F%2Fexodus.desync.com%3A6969"],"infoHash":"0151fae707e67fe71cbc3983f16fa33d5b8aa817","infoHashBuffer":{"type":"Buffer","data":[1,81,250,231,7,230,127,231,28,188,57,131,241,111,163,61,91,138,168,23]},"announce":[],"urlList":[]}}